# xmcd
#
# Track frame offsets:
#  150
#  38992
#  56513
#  89468
#  120272
#  150555
#  161679
#  186529
#  217456
#  242737
#  269007
#
# Disc length: 4081 seconds
#
# Revision: 0
# Processed by: cddbd v1.5.1PL2 Copyright (c) Steve Scherf et al.
# Submitted via: Collectorz.com Music Collector 6.9
#
DISCID=a20fef0b
DTITLE=Yanni - Tribute
DYEAR=1997
DGENRE=Blues
TTITLE0=Deliverance
TTITLE1=Adagio in minor
TTITLE2=Renegade
TTITLE3=Dance with a stranger
TTITLE4=Tribute
TTITLE5=Prelude
TTITLE6=Love is all
TTITLE7=Southers exposure
TTITLE8=Waltz in 7-8
TTITLE9=Nightingale
TTITLE10=Niki Nana (we're one)
EXTD=
EXTT0=
EXTT1=
EXTT2=
EXTT3=
EXTT4=
EXTT5=
EXTT6=
EXTT7=
EXTT8=
EXTT9=
EXTT10=
PLAYORDER=
